<?xml version="1.0" standalone="no"?>
<!DOCTYPE svg PUBLIC "-//W3C//DTD SVG 20010904//EN"
 "http://www.w3.org/TR/2001/REC-SVG-20010904/DTD/svg10.dtd">
<svg version="1.0" xmlns="http://www.w3.org/2000/svg"
 width="700.000000pt" height="700.000000pt" viewBox="0 0 700.000000 700.000000"
 preserveAspectRatio="xMidYMid meet">
<metadata>
Created by potrace 1.14, written by Peter Selinger 2001-2017
</metadata>
<g transform="translate(0.000000,700.000000) scale(0.100000,-0.100000)"
fill="#000000" stroke="none">
<path d="M0 3500 l0 -3500 3500 0 3500 0 0 3500 0 3500 -3500 0 -3500 0 0
-3500z m2362 1210 c48 -14 92 -51 122 -104 14 -22 173 -466 355 -986 181 -520
355 -1016 385 -1103 l55 -157 -241 2 -242 3 -65 198 -64 197 -398 0 -398 0
-55 -172 c-30 -95 -58 -185 -61 -200 l-7 -28 -245 0 c-134 0 -242 3 -240 8 3
4 172 486 377 1072 213 610 388 1095 409 1135 54 102 117 141 231 144 25 0 62
-4 82 -9z m1710 -644 l3 -654 440 650 c241 358 444 652 450 654 6 3 111 3 233
2 l223 -3 -375 -554 -375 -553 33 -52 c35 -54 729 -1121 760 -1168 l18 -28
-269 0 -269 0 -275 440 c-151 242 -277 440 -280 440 -4 0 -77 -94 -163 -208
l-156 -209 0 -231 0 -232 -235 0 -235 0 0 1180 0 1180 235 0 235 0 2 -654z"/>
<path d="M2136 3623 c-77 -247 -142 -454 -144 -460 -3 -10 58 -13 283 -13 226
0 286 3 282 13 -2 6 -64 213 -137 460 -74 246 -136 447 -139 447 -4 0 -69
-201 -145 -447z"/>
</g>
</svg>
